# xmcd
# 
# Track frame offsets:
#     150
#     11400
#     25200
#     42075
#     57225
#     76950
#     91500
#     103500
#     117525
#     128625
#     144225
#     160050
#     174675
# 
# Disc length: 2473
# 
# Revision: 3
# Processed by: cddbd v1.5.2PL0 Copyright (c) Steve Scherf et al.
# Submitted via: BonkEnc v1.0.5
# 
DISCID=9609a70d
DTITLE=Various Artist - Chicago/The Blues/Today! Vol. 3
DYEAR=1966
DGENRE=Blues
TTITLE0=One More Time - Johnny Young's South Side Blues Band
TTITLE1=Kid Man Blues - Johnny Young's South Side Blues Band
TTITLE2=My Black Mare - Johnny Young's South Side Blues Band
TTITLE3=Stealin' Back - Johnny Young's South Side Blues Band
TTITLE4=I Got Mine In Time - Johnny Young's South Side Blues Band
TTITLE5=Tighten Up On It - Johnny Young's South Side Blues Band
TTITLE6=Dynaflow Blues - The Johnny Shines Blues Band
TTITLE7=Black Spider Blues - The Johnny Shines Blues Band
TTITLE8=Layin' Down My Shoes And Clothes - The Johnny Shines Blues Band
TTITLE9=If I Get Lucky - The Johnny Shines Blues Band
TTITLE10=Rockin' My Boogie - Big Walter Horton's Blues Harp Band With Memphis Charlie
TTITLE11=Mr. Boweevil - The Johnny Shines Blues Band
TTITLE12=Hey, Hey - The Johnny Shines Blues Band
EXTD=
EXTT0=
EXTT1=
EXTT2=
EXTT3=
EXTT4=
EXTT5=
EXTT6=
EXTT7=
EXTT8=
EXTT9=
EXTT10=
EXTT11=
EXTT12=
PLAYORDER=
